HIERARCHY
ROOT Hips
{
 OFFSET 0.000000 0.000000 0.000000
 CHANNELS 6 Xposition Yposition Zposition Yrotation Xrotation Zrotation
 JOINT Chest
 {
  OFFSET 0.000000 14.374500 -0.011500
  CHANNELS 3 Yrotation Xrotation Zrotation
  JOINT Chest2
  {
   OFFSET 0.000000 9.203400 0.023400
   CHANNELS 3 Yrotation Xrotation Zrotation
   JOINT Chest3
   {
    OFFSET 0.000000 9.162700 0.000000
    CHANNELS 3 Yrotation Xrotation Zrotation
    JOINT Chest4
    {
     OFFSET 0.000000 9.153300 0.000000
     CHANNELS 3 Yrotation Xrotation Zrotation
     JOINT Neck
     {
      OFFSET 0.000000 13.353600 0.000000
      CHANNELS 3 Yrotation Xrotation Zrotation
      JOINT Head
      {
       OFFSET 0.000000 8.573800 0.049400
       CHANNELS 3 Yrotation Xrotation Zrotation
       End Site
       {
        OFFSET 0.000000 16.219200 0.026100
       }
      }
     }
     JOINT RightCollar
     {
      OFFSET -2.497100 8.876100 0.000000
      CHANNELS 3 Yrotation Xrotation Zrotation
      JOINT RightShoulder
      {
       OFFSET -12.289200 0.000000 0.000000
       CHANNELS 3 Yrotation Xrotation Zrotation
       JOINT RightElbow
       {
        OFFSET 0.000000 -28.194900 0.000000
        CHANNELS 3 Yrotation Xrotation Zrotation
        JOINT RightWrist
        {
         OFFSET 0.000000 -23.009700 0.007900
         CHANNELS 3 Yrotation Xrotation Zrotation
         End Site
         {
          OFFSET 0.000000 -17.151500 0.000000
         }
        }
       }
      }
     }
     JOINT LeftCollar
     {
      OFFSET 2.497100 8.876100 0.000000
      CHANNELS 3 Yrotation Xrotation Zrotation
      JOINT LeftShoulder
      {
       OFFSET 12.289200 0.000000 0.000000
       CHANNELS 3 Yrotation Xrotation Zrotation
       JOINT LeftElbow
       {
        OFFSET 0.000000 -28.194900 0.000000
        CHANNELS 3 Yrotation Xrotation Zrotation
        JOINT LeftWrist
        {
         OFFSET 0.000000 -23.009700 0.007900
         CHANNELS 3 Yrotation Xrotation Zrotation
         End Site
         {
          OFFSET 0.000000 -17.151500 0.000000
         }
        }
       }
      }
     }
    }
   }
  }
 }
 JOINT RightHip
 {
  OFFSET -11.777600 0.056700 0.005700
  CHANNELS 3 Yrotation Xrotation Zrotation
  JOINT RightKnee
  {
   OFFSET 0.000000 -39.966000 -0.004200
   CHANNELS 3 Yrotation Xrotation Zrotation
   JOINT RightAnkle
   {
    OFFSET 0.000000 -41.981900 0.027400
    CHANNELS 3 Yrotation Xrotation Zrotation
    JOINT RightToe
    {
     OFFSET 0.000000 -9.910600 16.950100
     CHANNELS 3 Yrotation Xrotation Zrotation
     End Site
     {
      OFFSET 0.000000 -1.461000 6.191600
     }
    }
   }
  }
 }
 JOINT LeftHip
 {
  OFFSET 11.777600 0.056700 0.005700
  CHANNELS 3 Yrotation Xrotation Zrotation
  JOINT LeftKnee
  {
   OFFSET 0.000000 -39.966000 -0.004200
   CHANNELS 3 Yrotation Xrotation Zrotation
   JOINT LeftAnkle
   {
    OFFSET 0.000000 -41.981900 0.027400
    CHANNELS 3 Yrotation Xrotation Zrotation
    JOINT LeftToe
    {
     OFFSET 0.000000 -9.910600 16.950100
     CHANNELS 3 Yrotation Xrotation Zrotation
     End Site
     {
      OFFSET 0.000000 -1.461000 6.191600
     }
    }
   }
  }
 }
}
MOTION
Frames: 16
Frame Time: 0.008333
-4.394397 130.458289 83.634559 176.732353 -51.663871 -1.658041 5.540606 27.565194 6.038872 0.755481 5.126195 0.869533 1.235617 7.964439 1.400747 4.144165 22.332250 4.564240 3.755563 14.802810 -4.251511 5.028396 -10.024052 -5.447209 -3.384260 1.180907 -0.457002 -9.244836 -4.661232 -3.871051 -142.010993 -78.825032 151.199580 3.791985 -3.854607 -22.277204 -7.197955 -0.858853 3.002802 15.446134 -0.154801 2.487112 100.960652 -59.670039 -118.567309 -0.099358 -30.987694 49.573579 7.580257 -26.133561 0.864398 -78.459125 83.352258 -83.146973 1.764583 -25.464811 9.605771 0.003647 -0.015200 0.002132 -1.645446 -22.844786 -5.059457 145.091291 71.996885 154.822284 -1.498760 -2.294738 -8.791406 0.007471 -0.016180 0.004368
-4.395645 130.458548 83.624478 176.749877 -51.609758 -1.677193 5.528684 27.570135 6.039316 0.752636 5.130108 0.869860 1.231848 7.967094 1.401536 4.132862 22.336283 4.564345 3.641979 14.655290 -4.277834 4.910795 -10.184808 -5.447607 -3.365835 1.124614 -0.464795 -9.140249 -4.641434 -4.005410 -141.213593 -78.933313 150.598110 3.867452 -3.766683 -22.188106 -7.273966 -0.824613 2.966725 15.324280 -0.218827 2.469436 100.456144 -59.507681 -118.132399 0.062137 -31.144154 49.292070 7.580316 -26.178815 0.854934 -78.438836 83.349033 -83.116018 1.765673 -25.470185 9.607167 0.002706 -0.013391 0.001582 -1.651030 -22.894877 -5.063351 145.102048 71.988186 154.837494 -1.485885 -2.315209 -8.782156 0.007575 -0.016953 0.004428
-4.398041 130.459160 83.613721 176.765585 -51.556573 -1.692098 5.515653 27.643422 6.035229 0.756003 5.071066 0.869777 1.227331 7.970315 1.402154 4.119139 22.341337 4.563619 3.532350 14.490837 -4.303221 4.797698 -10.363010 -5.448264 -3.355918 1.091036 -0.445148 -9.006676 -4.650402 -4.173104 -140.309511 -79.015463 149.913008 3.922353 -3.763321 -22.092035 -7.358479 -0.778077 2.926561 15.205289 -0.293069 2.443537 100.031230 -59.319525 -117.735237 0.228732 -31.343592 49.014265 7.572833 -26.229733 0.848226 -78.495173 83.345436 -83.172526 1.769485 -25.473888 9.606566 0.004459 -0.016305 0.002606 -1.645936 -22.938484 -5.078873 145.079120 71.979076 154.826092 -1.471325 -2.337763 -8.771039 0.005238 -0.014495 0.003062
-4.400613 130.459319 83.603069 176.788588 -51.499633 -1.713521 5.496513 27.655655 6.029696 0.753051 5.073969 0.870267 1.222667 7.974600 1.402797 4.104822 22.347747 4.562609 3.427494 14.308999 -4.328355 4.690248 -10.559139 -5.450118 -3.374519 1.081493 -0.405732 -8.830848 -4.688334 -4.362113 -139.335618 -79.068197 149.184087 3.970283 -3.806614 -21.999746 -7.435962 -0.752053 2.880304 15.075117 -0.344548 2.415782 99.723953 -59.125525 -117.394621 0.416306 -31.540192 48.728068 7.566605 -26.282409 0.836116 -78.545241 83.342437 -83.214257 1.772676 -25.481073 9.603781 0.005428 -0.018303 0.003173 -1.653335 -22.990127 -5.084225 145.084624 71.970704 154.835340 -1.460411 -2.357055 -8.761423 0.005548 -0.012030 0.003244
-4.402071 130.450498 83.599526 176.824718 -51.394928 -1.752222 5.466015 27.623698 6.024508 0.758760 5.039162 0.871767 1.208413 8.017810 1.403790 4.089402 22.355263 4.560811 3.328781 14.113145 -4.354995 4.590273 -10.769408 -5.455597 -3.374999 1.046495 -0.382881 -8.663430 -4.699776 -4.539905 -138.369094 -79.101294 148.487689 4.015699 -3.865731 -21.914433 -7.529576 -0.735425 2.814829 14.964159 -0.382477 2.392669 99.563310 -58.928485 -117.132635 0.621887 -31.724242 48.443799 7.555212 -26.384358 0.813651 -78.530815 83.353503 -83.184312 1.773759 -25.488092 9.601388 0.001279 -0.011306 0.000748 -1.671570 -23.092067 -5.079970 145.094169 71.961569 154.851901 -1.449195 -2.385733 -8.754834 0.004054 0.000939 0.002371
-4.404151 130.450084 83.589035 176.839819 -51.332309 -1.770995 5.446074 27.635283 6.018146 0.767491 5.004501 0.872481 1.190469 8.060979 1.405116 4.093693 22.318978 4.553823 3.216745 13.949307 -4.369244 4.498161 -10.989206 -5.465775 -3.389960 1.038160 -0.360453 -8.496004 -4.692692 -4.710489 -137.511374 -79.126857 147.910916 4.061472 -3.909698 -21.826995 -7.655207 -0.679060 2.742224 14.877560 -0.406334 2.368691 99.569573 -58.713360 -116.969616 0.833712 -31.932479 48.190356 7.548196 -26.444394 0.804335 -78.523748 83.358411 -83.171977 1.764490 -25.486874 9.606408 -0.001000 -0.011194 -0.000585 -1.670881 -23.149434 -5.080902 145.086744 71.956543 154.854360 -1.445031 -2.398441 -8.750774 0.004045 0.000624 0.002365
-4.405662 130.450119 83.578093 176.854051 -51.270760 -1.791486 5.424137 27.647924 6.011805 0.748404 5.065350 0.871283 1.200757 8.009453 1.402640 4.065293 22.348884 4.550859 3.140355 13.715514 -4.406826 4.414050 -11.216819 -5.479065 -3.358478 0.953289 -0.359132 -8.331197 -4.671840 -4.870018 -136.824208 -79.155494 147.501129 4.117493 -3.920929 -21.726522 -7.745925 -0.679376 2.663923 14.817627 -0.424209 2.333541 99.753218 -58.454365 -116.911550 1.049049 -32.204828 47.981744 7.543565 -26.504279 0.793189 -78.540142 83.366213 -83.174790 1.761625 -25.486825 9.607518 -0.000254 -0.010270 -0.000149 -1.668377 -23.207919 -5.078299 145.087254 71.947720 154.863859 -1.439861 -2.410190 -8.743596 0.002895 0.000737 0.001693
-4.407596 130.450168 83.566957 176.868234 -51.208297 -1.810273 5.402402 27.641358 6.003914 0.732233 5.106179 0.867609 1.200167 7.995338 1.400712 4.034345 22.380396 4.543310 3.072321 13.474940 -4.443490 4.338415 -11.449289 -5.494809 -3.299944 0.852776 -0.368892 -8.176794 -4.636277 -5.009226 -136.300617 -79.196716 147.242655 4.196193 -3.897746 -21.607448 -7.827197 -0.666840 2.599003 14.783241 -0.443499 2.286002 100.102626 -58.131581 -116.945127 1.251129 -32.551308 47.826991 7.540610 -26.564964 0.779233 -78.600286 83.370608 -83.221856 1.766061 -25.494366 9.607959 0.001472 -0.010549 0.000861 -1.662815 -23.269835 -5.076413 145.102551 71.937517 154.886497 -1.432562 -2.422065 -8.732148 0.000828 0.000515 0.000484
-4.409608 130.454914 83.551861 176.880465 -51.169005 -1.826393 5.390589 27.620633 6.003410 0.707312 5.162820 0.858746 1.193229 7.999677 1.397614 4.012288 22.388729 4.530887 3.000713 13.254380 -4.473469 4.270444 -11.682893 -5.512850 -3.283630 0.799033 -0.350368 -7.974850 -4.630164 -5.157011 -135.909685 -79.252813 147.103008 4.310277 -3.848274 -21.471299 -7.908863 -0.621716 2.545200 14.770067 -0.467047 2.237415 100.612762 -57.739617 -117.065804 1.419650 -32.962842 47.743533 7.532978 -26.602494 0.774504 -78.711133 83.371714 -83.317495 1.761520 -25.501200 9.598832 0.009749 -0.014964 0.005699 -1.653151 -23.307979 -5.075925 145.102933 71.933273 154.900523 -1.434932 -2.419145 -8.726349 0.002096 -0.008656 0.001225
-4.410856 130.452748 83.542212 176.897243 -51.093208 -1.850313 5.341090 27.675460 5.969396 0.722663 5.110571 0.861349 1.185620 8.003447 1.393070 3.987978 22.396973 4.514334 2.937369 13.033603 -4.503083 4.211748 -11.916368 -5.533096 -3.332534 0.787604 -0.317359 -7.694220 -4.668725 -5.297316 -135.640838 -79.320435 147.075420 4.466080 -3.780047 -21.324340 -7.979430 -0.575487 2.494359 14.774537 -0.493590 2.204367 101.307241 -57.281771 -117.296134 1.553001 -33.420293 47.745188 7.521968 -26.675358 0.756428 -78.723549 83.385760 -83.313266 1.768651 -25.512577 9.600125 0.014231 -0.013083 0.008319 -1.650276 -23.384119 -5.067535 145.113564 71.929089 154.923777 -1.434888 -2.424831 -8.718901 0.002168 -0.009225 0.001268
-4.413063 130.450647 83.532178 176.918024 -51.016661 -1.873374 5.295808 27.693856 5.932215 0.724353 5.095220 0.861059 1.176904 8.006625 1.386943 3.960224 22.405378 4.493203 2.883717 12.812608 -4.532826 4.164074 -12.149651 -5.556579 -3.283466 0.724864 -0.303042 -7.500805 -4.656971 -5.404417 -135.451591 -79.394593 147.123238 4.667471 -3.702324 -21.181186 -8.037481 -0.534012 2.445893 14.800680 -0.522080 2.195897 102.189838 -56.767039 -117.648730 1.645475 -33.897822 47.839074 7.507174 -26.745638 0.715731 -78.684618 83.411127 -83.252994 1.786579 -25.523544 9.592511 0.007543 -0.009005 0.004410 -1.649725 -23.458716 -5.061508 145.149181 71.928960 154.969191 -1.425427 -2.435576 -8.712845 0.003684 -0.007572 0.002154
-4.414586 130.450829 83.520052 176.937414 -50.950466 -1.897227 5.260149 27.704973 5.900288 0.718860 5.096947 0.856644 1.167980 8.009317 1.379725 3.931751 22.413655 4.468999 2.836606 12.591774 -4.561561 4.123672 -12.382358 -5.581153 -3.295753 0.695673 -0.272110 -7.249431 -4.686019 -5.499951 -135.290159 -79.470964 147.211124 4.911918 -3.631060 -21.071483 -8.085598 -0.492846 2.407303 14.866456 -0.578331 2.207751 103.192231 -56.227510 -118.077878 1.688210 -34.374558 48.027624 7.486320 -26.806838 0.696955 -78.658647 83.420914 -83.217388 1.792353 -25.527000 9.595234 0.004878 -0.008411 0.002852 -1.650873 -23.519931 -5.050025 145.193116 71.929844 155.017934 -1.413780 -2.448612 -8.702979 0.003583 -0.006292 0.002095
-4.416275 130.453565 83.505445 176.950336 -50.895928 -1.913804 5.240290 27.688783 5.883492 0.700541 5.136377 0.836225 1.160210 8.011371 1.372007 3.906464 22.420994 4.443696 2.792204 12.371038 -4.586709 4.085560 -12.614874 -5.602877 -3.319996 0.670502 -0.233621 -7.005643 -4.719476 -5.578205 -135.165493 -79.548940 147.363269 5.181841 -3.581558 -21.020046 -8.126684 -0.444508 2.384769 14.974075 -0.686459 2.226441 104.286833 -55.714905 -118.558062 1.693018 -34.836612 48.308315 7.466338 -26.854822 0.680567 -78.598193 83.435886 -83.158916 1.798790 -25.528593 9.598590 -0.001713 -0.009892 -0.001002 -1.650081 -23.567569 -5.037662 145.264478 71.929705 155.082294 -1.392534 -2.467125 -8.683358 -0.001091 -0.005288 -0.000638
-4.416150 130.453875 83.492523 176.969681 -50.826539 -1.940899 5.206165 27.717682 5.838914 0.703738 5.118667 0.838615 1.153801 8.013330 1.363783 3.884879 22.427856 4.417527 2.748501 12.148706 -4.607839 4.047422 -12.849178 -5.620725 -3.330264 0.636665 -0.192710 -6.798423 -4.742747 -5.642735 -135.082581 -79.624587 147.581387 5.462172 -3.558523 -21.030251 -8.158512 -0.393038 2.380505 15.177915 -0.669281 2.300446 105.670366 -55.157309 -119.379130 1.661846 -35.269748 48.687535 7.438625 -26.919835 0.666399 -78.587907 83.442046 -83.138724 1.818341 -25.533798 9.586992 -0.002312 -0.008755 -0.001352 -1.659454 -23.631292 -5.019848 145.284462 71.928082 155.107867 -1.385706 -2.477024 -8.684020 -0.000742 -0.005757 -0.000434
-4.415416 130.451658 83.481180 176.991368 -50.741429 -1.969330 5.172804 27.734446 5.792925 0.719651 5.058533 0.860158 1.150897 8.014438 1.359507 3.841206 22.480450 4.372302 2.704168 11.922541 -4.625095 4.007881 -13.087625 -5.634597 -3.301180 0.574232 -0.149582 -6.674495 -4.747344 -5.687658 -135.009569 -79.704875 147.852798 5.743519 -3.559659 -21.098413 -8.177016 -0.350405 2.395070 15.511974 -0.704984 2.399063 107.047987 -54.629760 -120.244012 1.578116 -35.655459 49.178236 7.416046 -27.003773 0.657112 -78.647027 83.443545 -83.182547 1.804962 -25.538856 9.602297 -0.000095 -0.006604 -0.000056 -1.674489 -23.712640 -5.001202 145.298984 71.921278 155.125898 -1.383225 -2.492193 -8.681983 -0.002869 -0.003589 -0.001678
-4.413551 130.454752 83.464964 177.006498 -50.680492 -1.991811 5.153988 27.760195 5.763024 0.710307 5.081638 0.844593 1.167704 7.947889 1.379172 3.807796 22.539096 4.326740 2.658189 11.690983 -4.638665 3.965937 -13.331896 -5.644549 -3.341673 0.548601 -0.100831 -6.482167 -4.782642 -5.743993 -134.915553 -79.760581 148.107337 6.014733 -3.580169 -21.225147 -8.180661 -0.325962 2.425218 15.945011 -0.765819 2.509286 108.478607 -54.129800 -121.205762 1.441203 -35.978528 49.776190 7.397615 -27.062928 0.645942 -78.736133 83.435196 -83.242406 1.825326 -25.547072 9.581154 0.011016 -0.008941 0.006441 -1.689283 -23.769769 -4.984783 145.306043 71.911003 155.132388 -1.380628 -2.501163 -8.679820 -0.007751 -0.009238 -0.004531
